<mxfile host="app.diagrams.net" modified="2023-02-08T09:58:30.471Z" agent="5.0 (X11)" etag="J8IYBJ9bDeGC2KHtLFKn" version="20.8.18" type="github" pages="2">
  <diagram name="Arsitektur" id="w2Bk5KoGZhnGjairzhCH">
    <mxGraphModel dx="1730" dy="459" grid="1" gridSize="10" guides="1" tooltips="1" connect="1" arrows="1" fold="1" page="1" pageScale="1" pageWidth="850" pageHeight="1100" math="0" shadow="0">
      <root>
        <mxCell id="0" />
        <mxCell id="1" parent="0" />
        <mxCell id="NlayDABv6sN1QFwKLQ2G-1" value="&lt;div&gt;DUNCAN&lt;/div&gt;&lt;div&gt;BACK OFFICE&lt;/div&gt;" style="ellipse;shape=cloud;whiteSpace=wrap;html=1;" vertex="1" parent="1">
          <mxGeometry x="30" y="99" width="120" height="80" as="geometry" />
        </mxCell>
        <mxCell id="NlayDABv6sN1QFwKLQ2G-2" value="&lt;div&gt;AINO BACK&lt;/div&gt;&lt;div&gt;OFFICE (SVD)&lt;/div&gt;" style="ellipse;shape=cloud;whiteSpace=wrap;html=1;" vertex="1" parent="1">
          <mxGeometry x="295" y="94" width="120" height="80" as="geometry" />
        </mxCell>
        <mxCell id="NlayDABv6sN1QFwKLQ2G-3" value="" style="endArrow=classic;html=1;rounded=0;exitX=0.875;exitY=0.5;exitDx=0;exitDy=0;exitPerimeter=0;entryX=0.16;entryY=0.55;entryDx=0;entryDy=0;entryPerimeter=0;dashed=1;dashPattern=1 2;" edge="1" parent="1" source="NlayDABv6sN1QFwKLQ2G-1" target="NlayDABv6sN1QFwKLQ2G-2">
          <mxGeometry width="50" height="50" relative="1" as="geometry">
            <mxPoint x="380" y="299" as="sourcePoint" />
            <mxPoint x="430" y="249" as="targetPoint" />
          </mxGeometry>
        </mxCell>
        <mxCell id="NlayDABv6sN1QFwKLQ2G-4" value="&lt;div&gt;FTP&lt;/div&gt;" style="text;html=1;strokeColor=none;fillColor=none;align=center;verticalAlign=middle;whiteSpace=wrap;rounded=0;" vertex="1" parent="1">
          <mxGeometry x="168" y="115" width="60" height="30" as="geometry" />
        </mxCell>
        <mxCell id="NlayDABv6sN1QFwKLQ2G-5" value="&lt;div&gt;File Consolidation&lt;/div&gt;" style="text;html=1;strokeColor=none;fillColor=none;align=center;verticalAlign=middle;whiteSpace=wrap;rounded=0;" vertex="1" parent="1">
          <mxGeometry x="158" y="135" width="100" height="30" as="geometry" />
        </mxCell>
        <mxCell id="NlayDABv6sN1QFwKLQ2G-6" style="edgeStyle=orthogonalEdgeStyle;rounded=0;orthogonalLoop=1;jettySize=auto;html=1;exitX=0.5;exitY=1;exitDx=0;exitDy=0;entryX=0.5;entryY=0;entryDx=0;entryDy=0;" edge="1" parent="1" source="NlayDABv6sN1QFwKLQ2G-8" target="NlayDABv6sN1QFwKLQ2G-12">
          <mxGeometry relative="1" as="geometry" />
        </mxCell>
        <mxCell id="NlayDABv6sN1QFwKLQ2G-7" style="edgeStyle=orthogonalEdgeStyle;rounded=0;orthogonalLoop=1;jettySize=auto;html=1;exitX=0.5;exitY=1;exitDx=0;exitDy=0;entryX=0.5;entryY=0;entryDx=0;entryDy=0;" edge="1" parent="1" source="NlayDABv6sN1QFwKLQ2G-8" target="NlayDABv6sN1QFwKLQ2G-16">
          <mxGeometry relative="1" as="geometry" />
        </mxCell>
        <mxCell id="NlayDABv6sN1QFwKLQ2G-8" value="&lt;div&gt;DUNCAN&lt;/div&gt;&lt;div&gt;BOARD&lt;/div&gt;" style="whiteSpace=wrap;html=1;aspect=fixed;fillColor=#f5f5f5;fontColor=#333333;strokeColor=#666666;" vertex="1" parent="1">
          <mxGeometry x="160" y="199" width="80" height="80" as="geometry" />
        </mxCell>
        <mxCell id="NlayDABv6sN1QFwKLQ2G-66" style="edgeStyle=orthogonalEdgeStyle;rounded=0;orthogonalLoop=1;jettySize=auto;html=1;exitX=0.5;exitY=1;exitDx=0;exitDy=0;dashed=1;dashPattern=12 12;strokeColor=default;" edge="1" parent="1" source="NlayDABv6sN1QFwKLQ2G-11" target="NlayDABv6sN1QFwKLQ2G-63">
          <mxGeometry relative="1" as="geometry" />
        </mxCell>
        <mxCell id="NlayDABv6sN1QFwKLQ2G-11" value="&lt;div&gt;COHERENT&lt;/div&gt;&lt;div&gt;BOARD&lt;/div&gt;" style="whiteSpace=wrap;html=1;aspect=fixed;fillColor=#d5e8d4;strokeColor=#82b366;" vertex="1" parent="1">
          <mxGeometry x="627.5" y="200" width="80" height="80" as="geometry" />
        </mxCell>
        <mxCell id="NlayDABv6sN1QFwKLQ2G-12" value="DUNCAN&lt;br&gt;APP" style="ellipse;whiteSpace=wrap;html=1;fillColor=#f5f5f5;fontColor=#333333;strokeColor=#666666;" vertex="1" parent="1">
          <mxGeometry x="-60" y="349" width="120" height="80" as="geometry" />
        </mxCell>
        <mxCell id="NlayDABv6sN1QFwKLQ2G-13" style="edgeStyle=orthogonalEdgeStyle;rounded=0;orthogonalLoop=1;jettySize=auto;html=1;exitX=0.5;exitY=1;exitDx=0;exitDy=0;" edge="1" parent="1" source="NlayDABv6sN1QFwKLQ2G-16" target="NlayDABv6sN1QFwKLQ2G-17">
          <mxGeometry relative="1" as="geometry" />
        </mxCell>
        <mxCell id="NlayDABv6sN1QFwKLQ2G-14" style="edgeStyle=orthogonalEdgeStyle;rounded=0;orthogonalLoop=1;jettySize=auto;html=1;exitX=0.5;exitY=1;exitDx=0;exitDy=0;" edge="1" parent="1" source="NlayDABv6sN1QFwKLQ2G-16" target="NlayDABv6sN1QFwKLQ2G-18">
          <mxGeometry relative="1" as="geometry" />
        </mxCell>
        <mxCell id="NlayDABv6sN1QFwKLQ2G-15" style="edgeStyle=orthogonalEdgeStyle;rounded=0;orthogonalLoop=1;jettySize=auto;html=1;exitX=0.5;exitY=1;exitDx=0;exitDy=0;" edge="1" parent="1" source="NlayDABv6sN1QFwKLQ2G-16" target="NlayDABv6sN1QFwKLQ2G-19">
          <mxGeometry relative="1" as="geometry" />
        </mxCell>
        <mxCell id="NlayDABv6sN1QFwKLQ2G-43" style="edgeStyle=orthogonalEdgeStyle;rounded=0;orthogonalLoop=1;jettySize=auto;html=1;exitX=1;exitY=0.5;exitDx=0;exitDy=0;" edge="1" parent="1" source="NlayDABv6sN1QFwKLQ2G-16" target="NlayDABv6sN1QFwKLQ2G-31">
          <mxGeometry relative="1" as="geometry" />
        </mxCell>
        <mxCell id="NlayDABv6sN1QFwKLQ2G-16" value="&lt;div&gt;AINO APP&lt;/div&gt;" style="ellipse;whiteSpace=wrap;html=1;fillColor=#fff2cc;strokeColor=#d6b656;" vertex="1" parent="1">
          <mxGeometry x="260" y="349" width="120" height="80" as="geometry" />
        </mxCell>
        <mxCell id="NlayDABv6sN1QFwKLQ2G-17" value="&lt;div&gt;LOCAL DB&lt;/div&gt;" style="shape=datastore;whiteSpace=wrap;html=1;fillColor=#fff2cc;strokeColor=#d6b656;" vertex="1" parent="1">
          <mxGeometry x="240" y="479" width="60" height="60" as="geometry" />
        </mxCell>
        <mxCell id="NlayDABv6sN1QFwKLQ2G-18" value="Business Flow" style="rounded=1;whiteSpace=wrap;html=1;fillColor=#fff2cc;strokeColor=#d6b656;" vertex="1" parent="1">
          <mxGeometry x="330" y="479" width="90" height="50" as="geometry" />
        </mxCell>
        <mxCell id="NlayDABv6sN1QFwKLQ2G-19" value="&lt;div&gt;Process&lt;/div&gt;&lt;div&gt;Logging&lt;br&gt;&lt;/div&gt;" style="rounded=1;whiteSpace=wrap;html=1;fillColor=#fff2cc;strokeColor=#d6b656;" vertex="1" parent="1">
          <mxGeometry x="445" y="479" width="90" height="50" as="geometry" />
        </mxCell>
        <mxCell id="NlayDABv6sN1QFwKLQ2G-21" value="Virtual Socket Communication" style="text;html=1;strokeColor=none;fillColor=none;align=center;verticalAlign=middle;whiteSpace=wrap;rounded=0;" vertex="1" parent="1">
          <mxGeometry x="365" y="260" width="80" height="30" as="geometry" />
        </mxCell>
        <mxCell id="NlayDABv6sN1QFwKLQ2G-22" value="" style="shape=flexArrow;endArrow=classic;startArrow=classic;html=1;rounded=0;dashed=1;dashPattern=12 12;entryX=0.55;entryY=0.95;entryDx=0;entryDy=0;entryPerimeter=0;exitX=0.725;exitY=0.05;exitDx=0;exitDy=0;exitPerimeter=0;" edge="1" parent="1" source="NlayDABv6sN1QFwKLQ2G-16" target="NlayDABv6sN1QFwKLQ2G-2">
          <mxGeometry width="100" height="100" relative="1" as="geometry">
            <mxPoint x="360" y="339" as="sourcePoint" />
            <mxPoint x="400" y="129" as="targetPoint" />
          </mxGeometry>
        </mxCell>
        <mxCell id="NlayDABv6sN1QFwKLQ2G-23" value="&lt;div&gt;Internet&lt;/div&gt;" style="edgeLabel;html=1;align=center;verticalAlign=middle;resizable=0;points=[];rotation=-75;" vertex="1" connectable="0" parent="NlayDABv6sN1QFwKLQ2G-22">
          <mxGeometry x="0.1558" y="-2" relative="1" as="geometry">
            <mxPoint x="3" y="-6" as="offset" />
          </mxGeometry>
        </mxCell>
        <mxCell id="NlayDABv6sN1QFwKLQ2G-24" value="" style="shape=flexArrow;endArrow=classic;startArrow=classic;html=1;rounded=0;exitX=1;exitY=0.5;exitDx=0;exitDy=0;entryX=0;entryY=0.5;entryDx=0;entryDy=0;" edge="1" parent="1" source="NlayDABv6sN1QFwKLQ2G-8" target="NlayDABv6sN1QFwKLQ2G-11">
          <mxGeometry width="100" height="100" relative="1" as="geometry">
            <mxPoint x="390" y="329" as="sourcePoint" />
            <mxPoint x="490" y="229" as="targetPoint" />
          </mxGeometry>
        </mxCell>
        <mxCell id="NlayDABv6sN1QFwKLQ2G-25" value="&lt;div&gt;Serial&lt;/div&gt;&amp;nbsp;Comunication" style="edgeLabel;html=1;align=center;verticalAlign=middle;resizable=0;points=[];" vertex="1" connectable="0" parent="NlayDABv6sN1QFwKLQ2G-24">
          <mxGeometry x="0.2258" y="-2" relative="1" as="geometry">
            <mxPoint x="-4" y="-22" as="offset" />
          </mxGeometry>
        </mxCell>
        <mxCell id="NlayDABv6sN1QFwKLQ2G-26" style="edgeStyle=orthogonalEdgeStyle;rounded=0;orthogonalLoop=1;jettySize=auto;html=1;exitX=1;exitY=0.5;exitDx=0;exitDy=0;" edge="1" parent="1" source="NlayDABv6sN1QFwKLQ2G-31" target="NlayDABv6sN1QFwKLQ2G-33">
          <mxGeometry relative="1" as="geometry" />
        </mxCell>
        <mxCell id="NlayDABv6sN1QFwKLQ2G-27" style="edgeStyle=orthogonalEdgeStyle;rounded=0;orthogonalLoop=1;jettySize=auto;html=1;exitX=1;exitY=0.5;exitDx=0;exitDy=0;entryX=0;entryY=0.5;entryDx=0;entryDy=0;" edge="1" parent="1" source="NlayDABv6sN1QFwKLQ2G-31" target="NlayDABv6sN1QFwKLQ2G-34">
          <mxGeometry relative="1" as="geometry" />
        </mxCell>
        <mxCell id="NlayDABv6sN1QFwKLQ2G-28" style="edgeStyle=orthogonalEdgeStyle;rounded=0;orthogonalLoop=1;jettySize=auto;html=1;exitX=1;exitY=0.5;exitDx=0;exitDy=0;entryX=0;entryY=0.5;entryDx=0;entryDy=0;" edge="1" parent="1" source="NlayDABv6sN1QFwKLQ2G-31" target="NlayDABv6sN1QFwKLQ2G-35">
          <mxGeometry relative="1" as="geometry" />
        </mxCell>
        <mxCell id="NlayDABv6sN1QFwKLQ2G-29" style="edgeStyle=orthogonalEdgeStyle;rounded=0;orthogonalLoop=1;jettySize=auto;html=1;exitX=1;exitY=0.5;exitDx=0;exitDy=0;entryX=0;entryY=0.5;entryDx=0;entryDy=0;" edge="1" parent="1" source="NlayDABv6sN1QFwKLQ2G-31" target="NlayDABv6sN1QFwKLQ2G-36">
          <mxGeometry relative="1" as="geometry" />
        </mxCell>
        <mxCell id="NlayDABv6sN1QFwKLQ2G-30" style="edgeStyle=orthogonalEdgeStyle;rounded=0;orthogonalLoop=1;jettySize=auto;html=1;exitX=1;exitY=0.5;exitDx=0;exitDy=0;entryX=0;entryY=0.5;entryDx=0;entryDy=0;" edge="1" parent="1" source="NlayDABv6sN1QFwKLQ2G-31" target="NlayDABv6sN1QFwKLQ2G-37">
          <mxGeometry relative="1" as="geometry" />
        </mxCell>
        <mxCell id="NlayDABv6sN1QFwKLQ2G-31" value="&lt;div&gt;Aino Payment&lt;/div&gt;&lt;div&gt;Module&lt;br&gt;&lt;/div&gt;" style="rounded=1;whiteSpace=wrap;html=1;fillColor=#fff2cc;strokeColor=#d6b656;" vertex="1" parent="1">
          <mxGeometry x="472.5" y="364" width="90" height="50" as="geometry" />
        </mxCell>
        <mxCell id="NlayDABv6sN1QFwKLQ2G-65" style="edgeStyle=orthogonalEdgeStyle;shape=flexArrow;rounded=0;orthogonalLoop=1;jettySize=auto;html=1;exitX=1;exitY=0.5;exitDx=0;exitDy=0;entryX=0;entryY=0.5;entryDx=0;entryDy=0;dashed=1;dashPattern=12 12;strokeColor=default;" edge="1" parent="1" source="e-P9x76uE63fHJefqGzV-6" target="NlayDABv6sN1QFwKLQ2G-63">
          <mxGeometry relative="1" as="geometry">
            <mxPoint x="552.5" y="330.25" as="sourcePoint" />
          </mxGeometry>
        </mxCell>
        <mxCell id="NlayDABv6sN1QFwKLQ2G-33" value="Mandiri Lib" style="rounded=1;whiteSpace=wrap;html=1;fillColor=#f8cecc;strokeColor=#b85450;" vertex="1" parent="1">
          <mxGeometry x="627.5" y="370" width="80" height="37.5" as="geometry" />
        </mxCell>
        <mxCell id="NlayDABv6sN1QFwKLQ2G-34" value="BCA Lib" style="rounded=1;whiteSpace=wrap;html=1;fillColor=#f8cecc;strokeColor=#b85450;" vertex="1" parent="1">
          <mxGeometry x="627.5" y="420" width="80" height="37.5" as="geometry" />
        </mxCell>
        <mxCell id="NlayDABv6sN1QFwKLQ2G-35" value="BRI Lib" style="rounded=1;whiteSpace=wrap;html=1;fillColor=#f8cecc;strokeColor=#b85450;" vertex="1" parent="1">
          <mxGeometry x="627.5" y="470" width="80" height="37.5" as="geometry" />
        </mxCell>
        <mxCell id="NlayDABv6sN1QFwKLQ2G-36" value="BNI Lib" style="rounded=1;whiteSpace=wrap;html=1;fillColor=#f8cecc;strokeColor=#b85450;" vertex="1" parent="1">
          <mxGeometry x="627.5" y="520" width="80" height="37.5" as="geometry" />
        </mxCell>
        <mxCell id="NlayDABv6sN1QFwKLQ2G-37" value="&lt;div&gt;BDKI&lt;/div&gt;" style="rounded=1;whiteSpace=wrap;html=1;fillColor=#f8cecc;strokeColor=#b85450;" vertex="1" parent="1">
          <mxGeometry x="627.5" y="570" width="80" height="37.5" as="geometry" />
        </mxCell>
        <mxCell id="NlayDABv6sN1QFwKLQ2G-38" value="" style="shape=flexArrow;endArrow=classic;startArrow=classic;html=1;rounded=0;dashed=1;dashPattern=12 12;entryX=0.55;entryY=0.95;entryDx=0;entryDy=0;entryPerimeter=0;exitX=0.5;exitY=0;exitDx=0;exitDy=0;" edge="1" parent="1" source="NlayDABv6sN1QFwKLQ2G-12" target="NlayDABv6sN1QFwKLQ2G-1">
          <mxGeometry width="100" height="100" relative="1" as="geometry">
            <mxPoint x="49.99618756562069" y="359.6720467284845" as="sourcePoint" />
            <mxPoint x="148.82999999999998" y="139" as="targetPoint" />
          </mxGeometry>
        </mxCell>
        <mxCell id="NlayDABv6sN1QFwKLQ2G-39" value="&lt;div&gt;Internet&lt;/div&gt;" style="edgeLabel;html=1;align=center;verticalAlign=middle;resizable=0;points=[];rotation=-75;" vertex="1" connectable="0" parent="NlayDABv6sN1QFwKLQ2G-38">
          <mxGeometry x="0.1558" y="-2" relative="1" as="geometry">
            <mxPoint x="3" y="-6" as="offset" />
          </mxGeometry>
        </mxCell>
        <mxCell id="NlayDABv6sN1QFwKLQ2G-40" value="BANK" style="ellipse;shape=cloud;whiteSpace=wrap;html=1;" vertex="1" parent="1">
          <mxGeometry x="525" y="90" width="120" height="80" as="geometry" />
        </mxCell>
        <mxCell id="NlayDABv6sN1QFwKLQ2G-41" value="" style="shape=flexArrow;endArrow=classic;startArrow=classic;html=1;rounded=0;entryX=0.16;entryY=0.55;entryDx=0;entryDy=0;entryPerimeter=0;exitX=0.875;exitY=0.5;exitDx=0;exitDy=0;exitPerimeter=0;" edge="1" parent="1" source="NlayDABv6sN1QFwKLQ2G-2" target="NlayDABv6sN1QFwKLQ2G-40">
          <mxGeometry width="100" height="100" relative="1" as="geometry">
            <mxPoint x="337" y="403" as="sourcePoint" />
            <mxPoint x="371" y="180" as="targetPoint" />
          </mxGeometry>
        </mxCell>
        <mxCell id="NlayDABv6sN1QFwKLQ2G-42" value="&lt;div&gt;File Settlement&lt;br&gt;&lt;/div&gt;" style="text;html=1;strokeColor=none;fillColor=none;align=center;verticalAlign=middle;whiteSpace=wrap;rounded=0;" vertex="1" parent="1">
          <mxGeometry x="420" y="135" width="100" height="30" as="geometry" />
        </mxCell>
        <mxCell id="NlayDABv6sN1QFwKLQ2G-68" style="edgeStyle=orthogonalEdgeStyle;rounded=0;orthogonalLoop=1;jettySize=auto;html=1;exitX=0.5;exitY=1;exitDx=0;exitDy=0;entryX=1;entryY=0.5;entryDx=0;entryDy=0;dashed=1;strokeColor=default;startArrow=classic;startFill=0;endArrow=none;endFill=0;" edge="1" parent="1" source="NlayDABv6sN1QFwKLQ2G-63" target="NlayDABv6sN1QFwKLQ2G-33">
          <mxGeometry relative="1" as="geometry">
            <Array as="points">
              <mxPoint x="668" y="360" />
              <mxPoint x="728" y="360" />
              <mxPoint x="728" y="389" />
            </Array>
          </mxGeometry>
        </mxCell>
        <mxCell id="NlayDABv6sN1QFwKLQ2G-70" style="edgeStyle=orthogonalEdgeStyle;rounded=0;orthogonalLoop=1;jettySize=auto;html=1;exitX=0.5;exitY=1;exitDx=0;exitDy=0;entryX=1;entryY=0.5;entryDx=0;entryDy=0;dashed=1;strokeColor=default;startArrow=classic;startFill=0;endArrow=none;endFill=0;" edge="1" parent="1" source="NlayDABv6sN1QFwKLQ2G-63" target="NlayDABv6sN1QFwKLQ2G-34">
          <mxGeometry relative="1" as="geometry">
            <Array as="points">
              <mxPoint x="668" y="360" />
              <mxPoint x="728" y="360" />
              <mxPoint x="728" y="439" />
            </Array>
          </mxGeometry>
        </mxCell>
        <mxCell id="NlayDABv6sN1QFwKLQ2G-71" style="edgeStyle=orthogonalEdgeStyle;rounded=0;orthogonalLoop=1;jettySize=auto;html=1;exitX=0.5;exitY=1;exitDx=0;exitDy=0;entryX=1;entryY=0.5;entryDx=0;entryDy=0;dashed=1;strokeColor=default;startArrow=classic;startFill=0;endArrow=none;endFill=0;" edge="1" parent="1" source="NlayDABv6sN1QFwKLQ2G-63" target="NlayDABv6sN1QFwKLQ2G-35">
          <mxGeometry relative="1" as="geometry">
            <Array as="points">
              <mxPoint x="668" y="360" />
              <mxPoint x="728" y="360" />
              <mxPoint x="728" y="489" />
            </Array>
          </mxGeometry>
        </mxCell>
        <mxCell id="NlayDABv6sN1QFwKLQ2G-72" style="edgeStyle=orthogonalEdgeStyle;rounded=0;orthogonalLoop=1;jettySize=auto;html=1;exitX=0.5;exitY=1;exitDx=0;exitDy=0;entryX=1;entryY=0.5;entryDx=0;entryDy=0;dashed=1;strokeColor=default;startArrow=classic;startFill=0;endArrow=none;endFill=0;" edge="1" parent="1" source="NlayDABv6sN1QFwKLQ2G-63" target="NlayDABv6sN1QFwKLQ2G-36">
          <mxGeometry relative="1" as="geometry">
            <Array as="points">
              <mxPoint x="668" y="360" />
              <mxPoint x="728" y="360" />
              <mxPoint x="728" y="539" />
            </Array>
          </mxGeometry>
        </mxCell>
        <mxCell id="NlayDABv6sN1QFwKLQ2G-73" style="edgeStyle=orthogonalEdgeStyle;rounded=0;orthogonalLoop=1;jettySize=auto;html=1;exitX=0.5;exitY=1;exitDx=0;exitDy=0;entryX=1;entryY=0.5;entryDx=0;entryDy=0;dashed=1;strokeColor=default;startArrow=classic;startFill=0;endArrow=none;endFill=0;" edge="1" parent="1" source="NlayDABv6sN1QFwKLQ2G-63" target="NlayDABv6sN1QFwKLQ2G-37">
          <mxGeometry relative="1" as="geometry">
            <Array as="points">
              <mxPoint x="668" y="360" />
              <mxPoint x="728" y="360" />
              <mxPoint x="728" y="589" />
            </Array>
          </mxGeometry>
        </mxCell>
        <mxCell id="NlayDABv6sN1QFwKLQ2G-63" value="&lt;div&gt;Coherent Reader Lib&lt;/div&gt;" style="rounded=1;whiteSpace=wrap;html=1;fillColor=#d5e8d4;strokeColor=#82b366;" vertex="1" parent="1">
          <mxGeometry x="627.5" y="300" width="80" height="37.5" as="geometry" />
        </mxCell>
        <mxCell id="NlayDABv6sN1QFwKLQ2G-67" value="&lt;div&gt;APDU&lt;/div&gt;" style="text;html=1;strokeColor=none;fillColor=none;align=center;verticalAlign=middle;whiteSpace=wrap;rounded=0;" vertex="1" parent="1">
          <mxGeometry x="557.5" y="364" width="70" height="30" as="geometry" />
        </mxCell>
        <mxCell id="ZBDRCNdPRJR7aOCH00S1-2" style="edgeStyle=orthogonalEdgeStyle;shape=flexArrow;rounded=0;orthogonalLoop=1;jettySize=auto;html=1;exitX=0.07;exitY=0.4;exitDx=0;exitDy=0;exitPerimeter=0;entryX=0.625;entryY=0.2;entryDx=0;entryDy=0;entryPerimeter=0;strokeColor=default;startArrow=block;startFill=0;endArrow=block;endFill=0;" edge="1" parent="1" source="NlayDABv6sN1QFwKLQ2G-75" target="NlayDABv6sN1QFwKLQ2G-2">
          <mxGeometry relative="1" as="geometry" />
        </mxCell>
        <mxCell id="NlayDABv6sN1QFwKLQ2G-75" value="LINK AJA" style="ellipse;shape=cloud;whiteSpace=wrap;html=1;" vertex="1" parent="1">
          <mxGeometry x="525" y="10" width="120" height="80" as="geometry" />
        </mxCell>
        <mxCell id="e-P9x76uE63fHJefqGzV-2" value="1. Init sale (Check CSN dan Saldo)" style="text;html=1;strokeColor=none;fillColor=none;align=center;verticalAlign=middle;whiteSpace=wrap;rounded=0;" vertex="1" parent="1">
          <mxGeometry x="99" y="333" width="100" height="30" as="geometry" />
        </mxCell>
        <mxCell id="e-P9x76uE63fHJefqGzV-3" value="2. Proceed sale (Deduction)" style="text;html=1;strokeColor=none;fillColor=none;align=center;verticalAlign=middle;whiteSpace=wrap;rounded=0;" vertex="1" parent="1">
          <mxGeometry x="93" y="363" width="100" height="30" as="geometry" />
        </mxCell>
        <mxCell id="e-P9x76uE63fHJefqGzV-5" style="edgeStyle=orthogonalEdgeStyle;shape=flexArrow;rounded=0;orthogonalLoop=1;jettySize=auto;html=1;exitX=1;exitY=0.4;exitDx=0;exitDy=0;dashed=1;dashPattern=12 12;strokeColor=default;exitPerimeter=0;" edge="1" parent="1" target="e-P9x76uE63fHJefqGzV-6" source="NlayDABv6sN1QFwKLQ2G-12">
          <mxGeometry relative="1" as="geometry">
            <mxPoint x="362" y="319.5" as="sourcePoint" />
            <Array as="points">
              <mxPoint x="60" y="390" />
              <mxPoint x="90" y="390" />
              <mxPoint x="90" y="300" />
            </Array>
            <mxPoint x="480" y="300" as="targetPoint" />
          </mxGeometry>
        </mxCell>
        <mxCell id="e-P9x76uE63fHJefqGzV-11" style="edgeStyle=orthogonalEdgeStyle;rounded=0;orthogonalLoop=1;jettySize=auto;html=1;exitX=0;exitY=0.75;exitDx=0;exitDy=0;entryX=1;entryY=0;entryDx=0;entryDy=0;strokeColor=default;startArrow=none;startFill=0;endArrow=block;endFill=0;shape=flexArrow;dashed=1;dashPattern=12 12;" edge="1" parent="1" source="e-P9x76uE63fHJefqGzV-6" target="NlayDABv6sN1QFwKLQ2G-16">
          <mxGeometry relative="1" as="geometry" />
        </mxCell>
        <mxCell id="e-P9x76uE63fHJefqGzV-6" value="&lt;div&gt;ECPI&lt;/div&gt;&lt;div&gt;Wrapper&lt;br&gt;&lt;/div&gt;" style="rounded=1;whiteSpace=wrap;html=1;fillColor=#fff2cc;strokeColor=#d6b656;" vertex="1" parent="1">
          <mxGeometry x="472.5" y="290" width="80" height="59" as="geometry" />
        </mxCell>
        <mxCell id="ZBDRCNdPRJR7aOCH00S1-3" value="&lt;div&gt;QR Code&lt;/div&gt;" style="edgeLabel;html=1;align=center;verticalAlign=middle;resizable=0;points=[];" vertex="1" connectable="0" parent="1">
          <mxGeometry x="445.0040495528658" y="60.00160420695158" as="geometry" />
        </mxCell>
      </root>
    </mxGraphModel>
  </diagram>
  <diagram id="9b9oU4BI4jaZKSgN-Czn" name="Sequence">
    <mxGraphModel dx="880" dy="459" grid="1" gridSize="10" guides="1" tooltips="1" connect="1" arrows="1" fold="1" page="1" pageScale="1" pageWidth="850" pageHeight="1100" math="0" shadow="0">
      <root>
        <mxCell id="0" />
        <mxCell id="1" parent="0" />
        <mxCell id="DkZN49h3XFGiAf7VtX6_-2" value="&lt;div&gt;START&lt;/div&gt;" style="ellipse;whiteSpace=wrap;html=1;" vertex="1" parent="1">
          <mxGeometry x="160" y="80" width="120" height="80" as="geometry" />
        </mxCell>
        <mxCell id="DkZN49h3XFGiAf7VtX6_-3" value="Permintaan Parkir" style="rounded=0;whiteSpace=wrap;html=1;" vertex="1" parent="1">
          <mxGeometry x="160" y="190" width="120" height="60" as="geometry" />
        </mxCell>
        <mxCell id="DkZN49h3XFGiAf7VtX6_-5" value="Mengisi No. Plat Kendaraan" style="rounded=0;whiteSpace=wrap;html=1;" vertex="1" parent="1">
          <mxGeometry x="160" y="290" width="120" height="60" as="geometry" />
        </mxCell>
        <mxCell id="DkZN49h3XFGiAf7VtX6_-6" value="&lt;div&gt;Mulai Perhitungan Waktu Parkir&lt;/div&gt;" style="rounded=0;whiteSpace=wrap;html=1;" vertex="1" parent="1">
          <mxGeometry x="160" y="480" width="120" height="60" as="geometry" />
        </mxCell>
        <mxCell id="DkZN49h3XFGiAf7VtX6_-12" value="Generate QR Online Ticket" style="rounded=0;whiteSpace=wrap;html=1;" vertex="1" parent="1">
          <mxGeometry x="160" y="380" width="120" height="60" as="geometry" />
        </mxCell>
        <mxCell id="DkZN49h3XFGiAf7VtX6_-24" style="edgeStyle=orthogonalEdgeStyle;rounded=0;orthogonalLoop=1;jettySize=auto;html=1;exitX=0.5;exitY=1;exitDx=0;exitDy=0;strokeColor=default;startArrow=none;startFill=0;endArrow=classic;endFill=1;" edge="1" parent="1" source="DkZN49h3XFGiAf7VtX6_-14" target="DkZN49h3XFGiAf7VtX6_-19">
          <mxGeometry relative="1" as="geometry" />
        </mxCell>
        <mxCell id="DkZN49h3XFGiAf7VtX6_-14" value="Permintaan Selesai Parkir" style="rounded=0;whiteSpace=wrap;html=1;" vertex="1" parent="1">
          <mxGeometry x="500" y="190" width="120" height="60" as="geometry" />
        </mxCell>
        <mxCell id="DkZN49h3XFGiAf7VtX6_-20" style="edgeStyle=orthogonalEdgeStyle;rounded=0;orthogonalLoop=1;jettySize=auto;html=1;exitX=0.5;exitY=1;exitDx=0;exitDy=0;entryX=0.5;entryY=0;entryDx=0;entryDy=0;strokeColor=default;startArrow=none;startFill=0;endArrow=classic;endFill=1;" edge="1" parent="1" source="DkZN49h3XFGiAf7VtX6_-15" target="DkZN49h3XFGiAf7VtX6_-17">
          <mxGeometry relative="1" as="geometry" />
        </mxCell>
        <mxCell id="DkZN49h3XFGiAf7VtX6_-21" style="edgeStyle=orthogonalEdgeStyle;rounded=0;orthogonalLoop=1;jettySize=auto;html=1;exitX=0.5;exitY=1;exitDx=0;exitDy=0;strokeColor=default;startArrow=none;startFill=0;endArrow=classic;endFill=1;" edge="1" parent="1" source="DkZN49h3XFGiAf7VtX6_-15" target="DkZN49h3XFGiAf7VtX6_-16">
          <mxGeometry relative="1" as="geometry" />
        </mxCell>
        <mxCell id="DkZN49h3XFGiAf7VtX6_-15" value="Pilihan Pembayaran" style="rounded=0;whiteSpace=wrap;html=1;" vertex="1" parent="1">
          <mxGeometry x="500" y="380" width="120" height="60" as="geometry" />
        </mxCell>
        <mxCell id="DkZN49h3XFGiAf7VtX6_-16" value="QR" style="rounded=0;whiteSpace=wrap;html=1;" vertex="1" parent="1">
          <mxGeometry x="410" y="480" width="120" height="60" as="geometry" />
        </mxCell>
        <mxCell id="DkZN49h3XFGiAf7VtX6_-17" value="Card" style="rounded=0;whiteSpace=wrap;html=1;" vertex="1" parent="1">
          <mxGeometry x="600" y="480" width="120" height="60" as="geometry" />
        </mxCell>
        <mxCell id="DkZN49h3XFGiAf7VtX6_-25" style="edgeStyle=orthogonalEdgeStyle;rounded=0;orthogonalLoop=1;jettySize=auto;html=1;exitX=0.5;exitY=1;exitDx=0;exitDy=0;entryX=0.5;entryY=0;entryDx=0;entryDy=0;strokeColor=default;startArrow=none;startFill=0;endArrow=classic;endFill=1;" edge="1" parent="1" source="DkZN49h3XFGiAf7VtX6_-19" target="DkZN49h3XFGiAf7VtX6_-15">
          <mxGeometry relative="1" as="geometry" />
        </mxCell>
        <mxCell id="DkZN49h3XFGiAf7VtX6_-19" value="Mengisi No. Plat Kendaraan" style="rounded=0;whiteSpace=wrap;html=1;" vertex="1" parent="1">
          <mxGeometry x="500" y="290" width="120" height="60" as="geometry" />
        </mxCell>
        <mxCell id="DkZN49h3XFGiAf7VtX6_-23" style="edgeStyle=orthogonalEdgeStyle;rounded=0;orthogonalLoop=1;jettySize=auto;html=1;exitX=0.5;exitY=1;exitDx=0;exitDy=0;strokeColor=default;startArrow=none;startFill=0;endArrow=classic;endFill=1;" edge="1" parent="1" source="DkZN49h3XFGiAf7VtX6_-22" target="DkZN49h3XFGiAf7VtX6_-14">
          <mxGeometry relative="1" as="geometry" />
        </mxCell>
        <mxCell id="DkZN49h3XFGiAf7VtX6_-22" value="&lt;div&gt;START&lt;/div&gt;" style="ellipse;whiteSpace=wrap;html=1;" vertex="1" parent="1">
          <mxGeometry x="500" y="80" width="120" height="80" as="geometry" />
        </mxCell>
      </root>
    </mxGraphModel>
  </diagram>
</mxfile>
